<svg width="41" height="40" viewBox="0 0 41 40" fill="none" xmlns="http://www.w3.org/2000/svg">
<g clip-path="url(#clip0_13455_41)">
<path d="M36.7204 22.6715C35.116 23.2021 33.4515 23.0391 32.0461 22.3442C28.6709 20.9583 25.8838 21.0821 25.3131 22.4163C25.3094 22.4226 25.3069 22.4276 25.3044 22.4339C25.3044 22.4365 25.3019 22.4403 25.3006 22.4428C25.2656 22.5211 25.243 22.6045 25.2355 22.6879V22.6929C25.039 24.0725 27.2404 26.1824 30.4305 27.4925C31.9635 27.7578 33.4015 28.603 34.3927 29.9726C36.4176 32.7709 35.8131 36.6963 33.0411 38.7417C30.2703 40.7859 26.3806 40.1756 24.3557 37.3772C23.362 36.0052 22.9128 34.3754 23.1305 32.8152C23.1305 29.2853 22.0618 26.3997 20.7026 26.1357C20.6801 26.1319 20.6576 26.1281 20.6351 26.1255C20.6125 26.1205 20.59 26.1192 20.5675 26.1192C20.5449 26.1154 20.5224 26.1154 20.4999 26.1167C20.4899 26.1167 20.4799 26.1167 20.4699 26.118C19.0294 26.1584 17.8693 29.1375 17.8693 32.8152C18.0958 34.3742 17.7441 36.0204 16.7579 37.3987C14.7481 40.2085 10.8622 40.8402 8.08013 38.8112C5.29682 36.7822 4.67108 32.8594 6.68096 30.0509C7.66213 28.6801 9.09008 27.8261 10.6194 27.5494C14.0147 26.1559 16.2849 23.8717 15.743 22.511C15.743 22.511 15.7417 22.5085 15.7417 22.5072C15.733 22.4845 15.723 22.463 15.713 22.4415C15.1022 21.144 12.3264 21.0366 8.9837 22.4087C7.58329 23.1124 5.92006 23.2855 4.31315 22.7637C1.04551 21.7012 -0.751622 18.1662 0.300879 14.8675C1.35213 11.5688 4.85379 9.75462 8.12143 10.8171C9.72584 11.3376 10.9761 12.4557 11.7069 13.8492C13.9459 16.7373 16.4075 17.9894 17.5664 17.1328C17.5777 17.1265 17.5889 17.1176 17.6002 17.1088C17.6027 17.1075 17.604 17.105 17.6065 17.1037C17.6327 17.0848 17.6565 17.0633 17.679 17.0418C18.8141 16.0197 18.2597 13.5435 16.0221 10.6567C14.9333 9.52973 14.26 7.99093 14.255 6.29168C14.2462 2.82622 17.0208 0.00887096 20.4536 2.72675e-05C23.8864 -0.0100798 26.6772 2.79084 26.6873 6.25631C26.691 7.95429 26.0277 9.49815 24.9452 10.6301C22.8014 13.3957 22.3146 15.9174 23.2482 16.942C23.2544 16.9496 23.2619 16.9584 23.2694 16.966C23.3095 17.0165 23.3583 17.0595 23.4121 17.0961C23.4209 17.1037 23.4296 17.11 23.4396 17.1151C24.596 17.9805 27.0339 16.6931 29.2766 13.8C29.9999 12.4027 31.2439 11.2783 32.8458 10.7476C36.1072 9.66744 39.6189 11.4614 40.6889 14.7538C41.7589 18.0475 39.9818 21.5925 36.7204 22.6715Z" fill="white"/>
</g>
<defs>
<clipPath id="clip0_13455_41">
<rect width="41" height="40" fill="white"/>
</clipPath>
</defs>
</svg>
