<?xml version="1.0" encoding="UTF-8"?>
<svg id="_레이어_2" data-name="레이어 2" xmlns="http://www.w3.org/2000/svg" viewBox="0 0 1080 1080">
  <defs>
    <style>
      .cls-1 {
        fill: #fff;
        stroke: #000;
        stroke-miterlimit: 10;
        stroke-width: 12px;
      }
    </style>
  </defs>
  <circle cx="555" cy="555" r="372"/>
  <circle class="cls-1" cx="525" cy="525" r="372"/>
  <g>
    <path d="M447.56,667.33c-54.92,46.63-109.29,36.19-125.87,16.66-16.15-19.01-18.07-74.87,36.85-121.5,54.92-46.63,162.03-47.37,162.03-47.37,0,0-18.09,105.57-73.01,152.21Z"/>
    <path d="M347.67,487.09c-60.14-39.66-66.68-92.76-53.37-112.94,12.96-19.66,64.69-35.09,124.83,4.57,60.14,39.66,92.97,139.06,92.97,139.06,0,0-104.29,8.97-164.43-30.69Z"/>
    <path d="M489.03,356.99c18.3-69.68,65.65-93.11,88.53-87.1,22.28,5.85,52.61,49.68,34.31,119.36-18.3,69.68-100.58,132.98-100.58,132.98,0,0-40.56-95.56-22.26-165.24Z"/>
    <path d="M660.81,431.99c71.45-9.26,111.27,28.17,114.5,53.04,3.14,24.21-25.75,71.21-97.2,80.47-71.45,9.26-161.54-46.94-161.54-46.94,0,0,72.79-77.31,144.24-86.57Z"/>
    <path d="M637.91,636.7c27.06,66.77,1.64,114.5-21.19,123.75-22.23,9.01-74.31-7.31-101.36-74.09-27.06-66.77,3.38-167.71,3.38-167.71,0,0,92.12,51.28,119.18,118.05Z"/>
  </g>
</svg>