<svg width="118" height="118" viewBox="0 0 118 118" fill="none" xmlns="http://www.w3.org/2000/svg">
<circle cx="59" cy="59" r="59" fill="black"/>
<g clip-path="url(#clip0_13473_12)">
<path d="M84.006 63.5324C81.5607 64.3457 79.0219 64.1014 76.8769 63.0454C71.726 60.9405 67.4761 61.1365 66.6092 63.1725C66.6035 63.1821 66.5997 63.1898 66.5959 63.1995C66.5959 63.2033 66.5921 63.2091 66.5902 63.213C66.537 63.3325 66.5028 63.4597 66.4916 63.5869L66.4916 63.5946C66.1955 65.699 69.558 68.9109 74.4262 70.9007C76.7648 71.3013 78.9598 72.5866 80.4749 74.6725C83.5701 78.9349 82.6583 84.9225 78.4362 88.0489C74.216 91.1734 68.2828 90.2528 65.1876 85.9904C63.6687 83.9006 62.9794 81.4164 63.3075 79.0364C63.2984 73.6533 61.6611 69.2556 59.5878 68.8564C59.5534 68.8507 59.5191 68.845 59.4847 68.8412C59.4503 68.8335 59.416 68.8316 59.3816 68.8317C59.3473 68.826 59.3129 68.826 59.2786 68.828C59.2633 68.828 59.248 68.8281 59.2328 68.83C57.0362 68.8954 55.2746 73.4414 55.2841 79.0499C55.6335 81.4268 55.1014 83.9382 53.6011 86.0427C50.5432 90.3327 44.6189 91.306 40.371 88.219C36.1213 85.1319 35.157 79.1512 38.2148 74.8631C39.7076 72.7702 41.883 71.4641 44.2145 71.0382C49.3887 68.9044 52.8449 65.4152 52.015 63.3416C52.015 63.3416 52.0131 63.3377 52.0131 63.3358C51.9997 63.3011 51.9844 63.2684 51.9691 63.2357C51.0344 61.2586 46.801 61.1019 41.7069 63.2028C39.5731 64.2796 37.0371 64.5478 34.5852 63.7562C29.5993 62.1443 26.8496 56.7581 28.4462 51.7249C30.0409 46.6917 35.3763 43.916 40.3621 45.528C42.8102 46.3176 44.7197 48.0195 45.8378 50.1427C49.2596 54.5413 53.0168 56.4443 54.7819 55.1351C54.7991 55.1254 54.8163 55.1119 54.8334 55.0984C54.8372 55.0965 54.8391 55.0926 54.8429 55.0907C54.883 55.0617 54.9192 55.0289 54.9535 54.9961C56.6819 53.4345 55.83 49.6597 52.4102 45.263C50.7469 43.5472 49.7162 41.2023 49.7042 38.6109C49.6819 33.3261 53.9059 29.0226 59.1409 29.0003C64.3759 28.976 68.6391 33.2403 68.6633 38.5251C68.6734 41.1145 67.6658 43.4706 66.0179 45.1996C62.7557 49.4226 62.0197 53.2695 63.4461 54.8296C63.4557 54.8411 63.4671 54.8546 63.4786 54.8661C63.5398 54.9431 63.6144 55.0085 63.6965 55.0642C63.7099 55.0757 63.7233 55.0854 63.7386 55.093C65.5042 56.4098 69.2187 54.4403 72.6314 50.0225C73.7309 47.8898 75.6251 46.1718 78.0666 45.3585C83.0375 43.7029 88.3974 46.4297 90.0376 51.4478C91.6778 56.4679 88.9768 61.8786 84.006 63.5324Z" fill="white"/>
</g>
<defs>
<clipPath id="clip0_13473_12">
<rect width="62.525" height="61" fill="white" transform="translate(28 29)"/>
</clipPath>
</defs>
</svg>
